<svg id="visual" viewBox="0 0 900 600" width="900" height="600" xmlns="http://www.w3.org/2000/svg" xmlns:xlink="http://www.w3.org/1999/xlink" version="1.1"><path d="M0 449L21.5 438C43 427 86 405 128.8 403.3C171.7 401.7 214.3 420.3 257.2 436.7C300 453 343 467 385.8 478C428.7 489 471.3 497 514.2 504C557 511 600 517 642.8 513.8C685.7 510.7 728.3 498.3 771.2 481.8C814 465.3 857 444.7 878.5 434.3L900 424L900 601L878.5 601C857 601 814 601 771.2 601C728.3 601 685.7 601 642.8 601C600 601 557 601 514.2 601C471.3 601 428.7 601 385.8 601C343 601 300 601 257.2 601C214.3 601 171.7 601 128.8 601C86 601 43 601 21.5 601L0 601Z" fill="#101827" stroke-linecap="round" stroke-linejoin="miter"></path></svg>