

<svg id="visual" viewBox="0 0 900 600" width="900" height="600" xmlns="http://www.w3.org/2000/svg" xmlns:xlink="http://www.w3.org/1999/xlink" version="1.1"><path d="M0 456L21.5 442.7C43 429.3 86 402.7 128.8 391C171.7 379.3 214.3 382.7 257.2 403.7C300 424.7 343 463.3 385.8 481.8C428.7 500.3 471.3 498.7 514.2 480.2C557 461.7 600 426.3 642.8 420.5C685.7 414.7 728.3 438.3 771.2 445.3C814 452.3 857 442.7 878.5 437.8L900 433L900 601L878.5 601C857 601 814 601 771.2 601C728.3 601 685.7 601 642.8 601C600 601 557 601 514.2 601C471.3 601 428.7 601 385.8 601C343 601 300 601 257.2 601C214.3 601 171.7 601 128.8 601C86 601 43 601 21.5 601L0 601Z" fill="#eff8ff" stroke-linecap="round" stroke-linejoin="miter"></path></svg>