<svg width="123" height="123" viewBox="0 0 123 123" fill="none" xmlns="http://www.w3.org/2000/svg">
<rect width="123" height="123" rx="61.5" fill="#3178C6"/>
<g filter="url(#filter0_b_1_53)">
<path d="M27 49H118V80H27V49Z" fill="#15141B"/>
</g>
<path d="M27.1818 51.8182L26.0227 58.6364H8.77273L9.93182 51.8182H27.1818ZM14.2955 45.5455H23.7045L19.7159 69.5795C19.6591 69.9432 19.6705 70.25 19.75 70.5C19.8295 70.7386 19.9886 70.9205 20.2273 71.0455C20.4773 71.1591 20.8068 71.2159 21.2159 71.2159C21.4886 71.2159 21.8239 71.1818 22.2216 71.1136C22.6193 71.0341 22.9205 70.9773 23.125 70.9432L23.3977 77.5568C22.9205 77.6932 22.2784 77.8466 21.4716 78.017C20.6761 78.1989 19.75 78.3182 18.6932 78.375C16.4886 78.4773 14.6932 78.2443 13.3068 77.6761C11.9318 77.108 10.9773 76.2216 10.4432 75.017C9.92045 73.8011 9.82955 72.2841 10.1705 70.4659L14.2955 45.5455ZM53.1719 60.3409H44.7173C44.7628 59.7955 44.6662 59.3295 44.4276 58.9432C44.1889 58.5568 43.8537 58.2614 43.4219 58.0568C43.0014 57.8523 42.5241 57.75 41.9901 57.75C41.0582 57.75 40.2116 57.9602 39.4503 58.3807C38.6889 58.7898 38.2628 59.3295 38.1719 60C38.1151 60.2614 38.2003 60.5057 38.4276 60.733C38.6548 60.9602 39.2514 61.1705 40.2173 61.3636L45.3991 62.3182C47.9901 62.7955 49.8764 63.6648 51.0582 64.9261C52.2514 66.1761 52.6832 67.8295 52.3537 69.8864C52.0469 71.6705 51.2628 73.2045 50.0014 74.4886C48.7401 75.7727 47.1378 76.7614 45.1946 77.4545C43.2628 78.1364 41.1264 78.4773 38.7855 78.4773C34.6605 78.4773 31.5696 77.6534 29.5128 76.0057C27.4673 74.358 26.5355 72.2045 26.7173 69.5455H35.8537C35.8764 70.3977 36.1605 71.0398 36.706 71.4716C37.2628 71.892 38.0014 72.1136 38.9219 72.1364C39.9219 72.1705 40.7969 71.9716 41.5469 71.5398C42.2969 71.0966 42.7173 70.5455 42.8082 69.8864C42.8423 69.5114 42.6776 69.2273 42.3139 69.0341C41.9616 68.8409 41.2855 68.6477 40.2855 68.4545L35.7855 67.6364C33.1946 67.1705 31.3082 66.2386 30.1264 64.8409C28.9446 63.4318 28.5355 61.6364 28.8991 59.4545C29.1946 57.7159 29.8991 56.2557 31.0128 55.0739C32.1378 53.892 33.6151 53 35.4446 52.3977C37.2741 51.7841 39.3878 51.4773 41.7855 51.4773C45.706 51.4773 48.6719 52.267 50.6832 53.8466C52.706 55.4148 53.5355 57.5795 53.1719 60.3409ZM64.0384 78.3409C62.1747 78.3409 60.5384 77.8523 59.1293 76.875C57.7315 75.8977 56.7259 74.4148 56.1122 72.4261C55.5099 70.4375 55.4588 67.9318 55.9588 64.9091C56.4815 61.75 57.3963 59.1818 58.7031 57.2045C60.0213 55.2273 61.5327 53.7784 63.2372 52.858C64.9531 51.9375 66.6747 51.4773 68.402 51.4773C69.6974 51.4773 70.794 51.7045 71.6918 52.1591C72.6009 52.6023 73.3224 53.1989 73.8565 53.9489C74.3906 54.6875 74.7543 55.5 74.9474 56.3864H75.0838L77.2997 43.0909H86.7088L80.9134 78H71.5724L72.2884 73.7045H72.0838C71.5724 74.5909 70.919 75.3864 70.1236 76.0909C69.3395 76.7841 68.4361 77.3352 67.4134 77.7443C66.3906 78.142 65.2656 78.3409 64.0384 78.3409ZM68.7088 71.1136C69.5724 71.1136 70.3565 70.8636 71.0611 70.3636C71.7656 69.8523 72.3622 69.1364 72.8509 68.2159C73.3395 67.2841 73.6861 66.1818 73.8906 64.9091C74.1065 63.6136 74.1236 62.5057 73.9418 61.5852C73.7599 60.6534 73.3963 59.9432 72.8509 59.4545C72.3168 58.9545 71.6179 58.7045 70.7543 58.7045C69.8906 58.7045 69.1122 58.9545 68.419 59.4545C67.7259 59.9432 67.1406 60.6534 66.6634 61.5852C66.1974 62.5057 65.8565 63.6136 65.6406 64.9091C65.4247 66.2045 65.3963 67.3182 65.5554 68.25C65.7259 69.1705 66.0781 69.8807 66.6122 70.3807C67.1463 70.8693 67.8452 71.1136 68.7088 71.1136ZM95.0099 71.7955L96.919 60.6136H98.1463L105.987 51.8182H116.555L103.669 65.5227H101.01L95.0099 71.7955ZM85.5327 78L91.3281 43.0909H100.737L94.9418 78H85.5327ZM101.692 78L97.3963 67.6364L104.692 60.9545L112.464 78H101.692Z" fill="#FCF8F8"/>
<defs>
<filter id="filter0_b_1_53" x="23" y="45" width="99" height="39" filterUnits="userSpaceOnUse" color-interpolation-filters="sRGB">
<feFlood flood-opacity="0" result="BackgroundImageFix"/>
<feGaussianBlur in="BackgroundImageFix" stdDeviation="2"/>
<feComposite in2="SourceAlpha" operator="in" result="effect1_backgroundBlur_1_53"/>
<feBlend mode="normal" in="SourceGraphic" in2="effect1_backgroundBlur_1_53" result="shape"/>
</filter>
</defs>
</svg>
